<svg xmlns="http://www.w3.org/2000/svg" viewBox="0 0 64 64" fill="none">
  <title>GL</title>
  <path d="M33 9C19.2 9 9 18.8 9 32s10.2 23 24 23c7.2 0 13.2-2.4 17.5-6.8V31H32v8h9.5v5.1A15.2 15.2 0 0 1 33 46c-8.5 0-14.5-5.8-14.5-14S24.5 18 33 18c4.8 0 8.5 1.6 11.4 4.5l6.2-6.2C46.1 11.5 40.2 9 33 9Z" fill="#669BBC" stroke="#003049" stroke-width="1.5" paint-order="stroke fill"/>
  <path d="M43 22v24h13v9H34V22h9Z" fill="#C1121F" stroke="#003049" stroke-width="1.5" paint-order="stroke fill"/>
  <circle cx="52.5" cy="13.5" r="5.5" fill="#FDF0D5" stroke="#003049" stroke-width="1.5"/>
</svg>
